<svg width="549" height="27" viewBox="0 0 549 27" fill="none" xmlns="http://www.w3.org/2000/svg">
<path d="M12.6914 2.67383L4.21875 26H0.755859L10.5117 0.40625H12.7441L12.6914 2.67383ZM19.793 26L11.3027 2.67383L11.25 0.40625H13.4824L23.2734 26H19.793ZM19.3535 16.5254V19.3027H4.97461V16.5254H19.3535ZM33.873 0.40625V26H30.5332V0.40625H33.873ZM42.0996 0.40625V3.18359H22.3242V0.40625H42.0996ZM62.1562 23.2402V26H48.6035V23.2402H62.1562ZM49.2891 0.40625V26H45.8965V0.40625H49.2891ZM60.3633 11.4102V14.1699H48.6035V11.4102H60.3633ZM61.9805 0.40625V3.18359H48.6035V0.40625H61.9805ZM86.0449 0.40625V26H82.6348L69.75 6.25977V26H66.3574V0.40625H69.75L82.6875 20.1992V0.40625H86.0449ZM107.508 17.8613H110.883C110.707 19.4785 110.244 20.9258 109.494 22.2031C108.744 23.4805 107.684 24.4941 106.312 25.2441C104.941 25.9824 103.23 26.3516 101.18 26.3516C99.6797 26.3516 98.3145 26.0703 97.084 25.5078C95.8652 24.9453 94.8164 24.1484 93.9375 23.1172C93.0586 22.0742 92.3789 20.8262 91.8984 19.373C91.4297 17.9082 91.1953 16.2793 91.1953 14.4863V11.9375C91.1953 10.1445 91.4297 8.52148 91.8984 7.06836C92.3789 5.60352 93.0645 4.34961 93.9551 3.30664C94.8574 2.26367 95.9414 1.46094 97.207 0.898438C98.4727 0.335938 99.8965 0.0546875 101.479 0.0546875C103.412 0.0546875 105.047 0.417969 106.383 1.14453C107.719 1.87109 108.756 2.87891 109.494 4.16797C110.244 5.44531 110.707 6.92773 110.883 8.61523H107.508C107.344 7.41992 107.039 6.39453 106.594 5.53906C106.148 4.67188 105.516 4.00391 104.695 3.53516C103.875 3.06641 102.803 2.83203 101.479 2.83203C100.342 2.83203 99.3398 3.04883 98.4727 3.48242C97.6172 3.91602 96.8965 4.53125 96.3105 5.32812C95.7363 6.125 95.3027 7.08008 95.0098 8.19336C94.7168 9.30664 94.5703 10.543 94.5703 11.9023V14.4863C94.5703 15.7402 94.6992 16.918 94.957 18.0195C95.2266 19.1211 95.6309 20.0879 96.1699 20.9199C96.709 21.752 97.3945 22.4082 98.2266 22.8887C99.0586 23.3574 100.043 23.5918 101.18 23.5918C102.621 23.5918 103.77 23.3633 104.625 22.9062C105.48 22.4492 106.125 21.793 106.559 20.9375C107.004 20.082 107.32 19.0566 107.508 17.8613ZM119.145 0.40625V26H115.752V0.40625H119.145ZM145.02 12.3945V14.0117C145.02 15.9336 144.779 17.6562 144.299 19.1797C143.818 20.7031 143.127 21.998 142.225 23.0645C141.322 24.1309 140.238 24.9453 138.973 25.5078C137.719 26.0703 136.312 26.3516 134.754 26.3516C133.242 26.3516 131.854 26.0703 130.588 25.5078C129.334 24.9453 128.244 24.1309 127.318 23.0645C126.404 21.998 125.695 20.7031 125.191 19.1797C124.688 17.6562 124.436 15.9336 124.436 14.0117V12.3945C124.436 10.4727 124.682 8.75586 125.174 7.24414C125.678 5.7207 126.387 4.42578 127.301 3.35938C128.215 2.28125 129.299 1.46094 130.553 0.898438C131.818 0.335938 133.207 0.0546875 134.719 0.0546875C136.277 0.0546875 137.684 0.335938 138.938 0.898438C140.203 1.46094 141.287 2.28125 142.189 3.35938C143.104 4.42578 143.801 5.7207 144.281 7.24414C144.773 8.75586 145.02 10.4727 145.02 12.3945ZM141.662 14.0117V12.3594C141.662 10.8359 141.504 9.48828 141.188 8.31641C140.883 7.14453 140.432 6.16016 139.834 5.36328C139.236 4.56641 138.504 3.96289 137.637 3.55273C136.781 3.14258 135.809 2.9375 134.719 2.9375C133.664 2.9375 132.709 3.14258 131.854 3.55273C131.01 3.96289 130.283 4.56641 129.674 5.36328C129.076 6.16016 128.613 7.14453 128.285 8.31641C127.957 9.48828 127.793 10.8359 127.793 12.3594V14.0117C127.793 15.5469 127.957 16.9062 128.285 18.0898C128.613 19.2617 129.082 20.252 129.691 21.0605C130.312 21.8574 131.045 22.4609 131.889 22.8711C132.744 23.2812 133.699 23.4863 134.754 23.4863C135.855 23.4863 136.834 23.2812 137.689 22.8711C138.545 22.4609 139.266 21.8574 139.852 21.0605C140.449 20.252 140.9 19.2617 141.205 18.0898C141.51 16.9062 141.662 15.5469 141.662 14.0117ZM169.787 0.40625V26H166.377L153.492 6.25977V26H150.1V0.40625H153.492L166.43 20.1992V0.40625H169.787ZM200.18 17.8613H203.555C203.379 19.4785 202.916 20.9258 202.166 22.2031C201.416 23.4805 200.355 24.4941 198.984 25.2441C197.613 25.9824 195.902 26.3516 193.852 26.3516C192.352 26.3516 190.986 26.0703 189.756 25.5078C188.537 24.9453 187.488 24.1484 186.609 23.1172C185.73 22.0742 185.051 20.8262 184.57 19.373C184.102 17.9082 183.867 16.2793 183.867 14.4863V11.9375C183.867 10.1445 184.102 8.52148 184.57 7.06836C185.051 5.60352 185.736 4.34961 186.627 3.30664C187.529 2.26367 188.613 1.46094 189.879 0.898438C191.145 0.335938 192.568 0.0546875 194.15 0.0546875C196.084 0.0546875 197.719 0.417969 199.055 1.14453C200.391 1.87109 201.428 2.87891 202.166 4.16797C202.916 5.44531 203.379 6.92773 203.555 8.61523H200.18C200.016 7.41992 199.711 6.39453 199.266 5.53906C198.82 4.67188 198.188 4.00391 197.367 3.53516C196.547 3.06641 195.475 2.83203 194.15 2.83203C193.014 2.83203 192.012 3.04883 191.145 3.48242C190.289 3.91602 189.568 4.53125 188.982 5.32812C188.408 6.125 187.975 7.08008 187.682 8.19336C187.389 9.30664 187.242 10.543 187.242 11.9023V14.4863C187.242 15.7402 187.371 16.918 187.629 18.0195C187.898 19.1211 188.303 20.0879 188.842 20.9199C189.381 21.752 190.066 22.4082 190.898 22.8887C191.73 23.3574 192.715 23.5918 193.852 23.5918C195.293 23.5918 196.441 23.3633 197.297 22.9062C198.152 22.4492 198.797 21.793 199.23 20.9375C199.676 20.082 199.992 19.0566 200.18 17.8613ZM223.699 23.2402V26H210.902V23.2402H223.699ZM211.57 0.40625V26H208.178V0.40625H211.57ZM231.223 0.40625V26H227.83V0.40625H231.223ZM257.08 0.40625V26H253.67L240.785 6.25977V26H237.393V0.40625H240.785L253.723 20.1992V0.40625H257.08ZM266.73 0.40625V26H263.338V0.40625H266.73ZM288.352 17.8613H291.727C291.551 19.4785 291.088 20.9258 290.338 22.2031C289.588 23.4805 288.527 24.4941 287.156 25.2441C285.785 25.9824 284.074 26.3516 282.023 26.3516C280.523 26.3516 279.158 26.0703 277.928 25.5078C276.709 24.9453 275.66 24.1484 274.781 23.1172C273.902 22.0742 273.223 20.8262 272.742 19.373C272.273 17.9082 272.039 16.2793 272.039 14.4863V11.9375C272.039 10.1445 272.273 8.52148 272.742 7.06836C273.223 5.60352 273.908 4.34961 274.799 3.30664C275.701 2.26367 276.785 1.46094 278.051 0.898438C279.316 0.335938 280.74 0.0546875 282.322 0.0546875C284.256 0.0546875 285.891 0.417969 287.227 1.14453C288.562 1.87109 289.6 2.87891 290.338 4.16797C291.088 5.44531 291.551 6.92773 291.727 8.61523H288.352C288.188 7.41992 287.883 6.39453 287.438 5.53906C286.992 4.67188 286.359 4.00391 285.539 3.53516C284.719 3.06641 283.646 2.83203 282.322 2.83203C281.186 2.83203 280.184 3.04883 279.316 3.48242C278.461 3.91602 277.74 4.53125 277.154 5.32812C276.58 6.125 276.146 7.08008 275.854 8.19336C275.561 9.30664 275.414 10.543 275.414 11.9023V14.4863C275.414 15.7402 275.543 16.918 275.801 18.0195C276.07 19.1211 276.475 20.0879 277.014 20.9199C277.553 21.752 278.238 22.4082 279.07 22.8887C279.902 23.3574 280.887 23.5918 282.023 23.5918C283.465 23.5918 284.613 23.3633 285.469 22.9062C286.324 22.4492 286.969 21.793 287.402 20.9375C287.848 20.082 288.164 19.0566 288.352 17.8613ZM305.824 2.67383L297.352 26H293.889L303.645 0.40625H305.877L305.824 2.67383ZM312.926 26L304.436 2.67383L304.383 0.40625H306.615L316.406 26H312.926ZM312.486 16.5254V19.3027H298.107V16.5254H312.486ZM337.025 22.1152L344.566 0.40625H348.24L338.766 26H336.146L337.025 22.1152ZM329.977 0.40625L337.447 22.1152L338.379 26H335.76L326.303 0.40625H329.977ZM367.945 23.2402V26H354.393V23.2402H367.945ZM355.078 0.40625V26H351.686V0.40625H355.078ZM366.152 11.4102V14.1699H354.393V11.4102H366.152ZM367.77 0.40625V3.18359H354.393V0.40625H367.77ZM381.955 0.40625V26H378.615V0.40625H381.955ZM390.182 0.40625V3.18359H370.406V0.40625H390.182ZM410.238 23.2402V26H396.686V23.2402H410.238ZM397.371 0.40625V26H393.979V0.40625H397.371ZM408.445 11.4102V14.1699H396.686V11.4102H408.445ZM410.062 0.40625V3.18359H396.686V0.40625H410.062ZM414.439 0.40625H422.912C424.834 0.40625 426.457 0.699219 427.781 1.28516C429.117 1.87109 430.131 2.73828 430.822 3.88672C431.525 5.02344 431.877 6.42383 431.877 8.08789C431.877 9.25977 431.637 10.332 431.156 11.3047C430.688 12.2656 430.008 13.0859 429.117 13.7656C428.238 14.4336 427.184 14.9316 425.953 15.2598L425.004 15.6289H417.041L417.006 12.8691H423.018C424.236 12.8691 425.25 12.6582 426.059 12.2363C426.867 11.8027 427.477 11.2227 427.887 10.4961C428.297 9.76953 428.502 8.9668 428.502 8.08789C428.502 7.10352 428.309 6.24219 427.922 5.50391C427.535 4.76562 426.926 4.19727 426.094 3.79883C425.273 3.38867 424.213 3.18359 422.912 3.18359H417.832V26H414.439V0.40625ZM429.398 26L423.176 14.3984L426.709 14.3809L433.02 25.7891V26H429.398ZM440.262 0.40625V26H436.869V0.40625H440.262ZM466.119 0.40625V26H462.709L449.824 6.25977V26H446.432V0.40625H449.824L462.762 20.1992V0.40625H466.119ZM481.922 2.67383L473.449 26H469.986L479.742 0.40625H481.975L481.922 2.67383ZM489.023 26L480.533 2.67383L480.48 0.40625H482.713L492.504 26H489.023ZM488.584 16.5254V19.3027H474.205V16.5254H488.584ZM495.932 0.40625H504.404C506.326 0.40625 507.949 0.699219 509.273 1.28516C510.609 1.87109 511.623 2.73828 512.314 3.88672C513.018 5.02344 513.369 6.42383 513.369 8.08789C513.369 9.25977 513.129 10.332 512.648 11.3047C512.18 12.2656 511.5 13.0859 510.609 13.7656C509.73 14.4336 508.676 14.9316 507.445 15.2598L506.496 15.6289H498.533L498.498 12.8691H504.51C505.729 12.8691 506.742 12.6582 507.551 12.2363C508.359 11.8027 508.969 11.2227 509.379 10.4961C509.789 9.76953 509.994 8.9668 509.994 8.08789C509.994 7.10352 509.801 6.24219 509.414 5.50391C509.027 4.76562 508.418 4.19727 507.586 3.79883C506.766 3.38867 505.705 3.18359 504.404 3.18359H499.324V26H495.932V0.40625ZM510.891 26L504.668 14.3984L508.201 14.3809L514.512 25.7891V26H510.891ZM521.754 0.40625V26H518.361V0.40625H521.754ZM537.715 2.67383L529.242 26H525.779L535.535 0.40625H537.768L537.715 2.67383ZM544.816 26L536.326 2.67383L536.273 0.40625H538.506L548.297 26H544.816ZM544.377 16.5254V19.3027H529.998V16.5254H544.377Z" fill="#9E2A9B"/>
</svg>
